<svg width="720" height="720" xmlns="http://www.w3.org/2000/svg" xmlns:xlink="http://www.w3.org/1999/xlink" xml:space="preserve" overflow="hidden"><defs><clipPath id="clip0"><rect x="280" y="0" width="720" height="720"/></clipPath></defs><g clip-path="url(#clip0)" transform="translate(-280 0)"><path d="M989.307 254.967C904.907 254.967 842.539 309.542 825.491 326.177 757.603 309.717 715.317 336.3 691.599 361.981 679.191 375.417 670.624 389.827 665.014 401.373 661.615 396.089 657.398 390.278 652.291 384.469 629.9 359 600.986 345.54 568.674 345.54 541.338 345.54 519.566 353.992 502.78 365.04L554.151 247.416 559.318 257.581C561.142 261.17 564.826 263.43 568.851 263.43L645.363 263.43 675.134 263.43 798.358 263.43C804.263 263.43 809.051 258.642 809.051 252.737L809.051 182.658C809.051 181.01 808.667 179.456 808.002 178.061L812.427 173.07C814.89 170.293 815.736 166.437 814.662 162.882L779.075 45.1111C777.713 40.5984 773.553 37.5103 768.839 37.5103L721.387 37.5103 664.877 37.5103 640.75 37.5103 593.297 37.5103 536.785 37.5103C534.223 37.5103 531.747 38.43 529.805 40.102L460.901 99.4669C459.834 100.388 458.958 101.509 458.327 102.767L281.138 455.477C280.39 456.965 280 458.61 280 460.277L280 548.089C280 551.239 281.388 554.23 283.797 556.259 287.657 559.517 379.705 636.033 500.562 636.033 603.011 636.033 687.077 602.484 711.425 591.712L799.071 679.357C801.075 681.363 803.796 682.488 806.631 682.488L989.305 682.488C995.21 682.488 999.999 677.7 999.999 671.795L999.999 265.66C1000 259.755 995.212 254.967 989.307 254.967ZM787.669 242.042 787.669 242.042 675.137 242.042 656.059 242.042 656.059 221.961 660.303 221.961 698.392 221.961 716.815 221.961 764.268 221.961C767.328 221.961 770.238 220.65 772.269 218.363L787.669 200.995 787.669 242.042ZM760.901 58.898 792.464 163.351 759.457 200.576 740.588 200.576 764.976 173.071C767.439 170.294 768.285 166.438 767.211 162.883L735.791 58.8994 760.901 58.8994ZM713.448 58.898 745.012 163.351 712.004 200.576 698.392 200.576 684.076 200.576 708.465 173.071C710.928 170.294 711.774 166.438 710.701 162.883L679.279 58.8994 713.448 58.8994ZM811.059 661.103 721.28 571.324C718.05 568.095 713.121 567.276 709.019 569.28 708.091 569.732 614.855 614.647 500.559 614.647 400.846 614.647 319.562 556.878 301.385 542.919L301.385 462.81 476.478 114.276 540.755 58.898 593.297 58.898 640.75 58.898 656.937 58.898 688.499 163.351 655.491 200.576 650.938 200.576 605.119 200.576 605.119 189.765C605.119 179.011 613.866 170.265 624.62 170.265L642.004 170.265C645.557 170.265 648.878 168.5 650.866 165.555 652.854 162.61 653.25 158.871 651.922 155.575L637.283 119.235C637.232 119.108 637.168 118.99 637.112 118.865 637.096 118.831 637.081 118.796 637.065 118.763 635.714 115.824 633.178 113.773 630.258 112.949 630.252 112.947 630.246 112.946 630.242 112.944 629.928 112.856 629.611 112.781 629.289 112.722 629.228 112.711 629.168 112.702 629.107 112.693 628.836 112.648 628.563 112.611 628.287 112.587 628.182 112.577 628.076 112.573 627.97 112.566 627.737 112.552 627.505 112.545 627.272 112.546 627.207 112.546 627.147 112.539 627.082 112.541 624.713 112.603 588.358 112.572 564.498 112.538 564.493 112.538 564.489 112.538 564.483 112.538 558.585 112.538 553.798 117.315 553.79 123.216 553.781 129.12 558.561 133.916 564.468 133.924 568.377 133.93 591.735 133.962 608.956 133.962 613.187 133.962 617.047 133.961 620.156 133.955L626.167 148.878 624.618 148.878C602.073 148.878 583.733 167.219 583.733 189.765L583.733 211.269C583.733 217.174 588.521 221.962 594.426 221.962L634.672 221.962 634.672 242.044 575.412 242.044 562.953 217.533C561.078 213.844 557.214 211.562 553.108 211.69 548.972 211.809 545.278 214.305 543.621 218.098L457.151 416.085C454.812 421.438 457.202 427.676 462.517 430.096 467.83 432.516 474.106 430.225 476.611 424.951 476.886 424.37 504.885 366.927 568.675 366.927 631.478 366.927 655.387 428.001 656.366 430.577 657.992 434.919 662.227 437.732 666.861 437.511 671.493 437.303 675.463 434.133 676.692 429.663 676.771 429.377 684.781 400.892 707.314 376.494 736.978 344.374 776.894 334.918 825.96 348.387 829.821 349.448 833.949 348.262 836.658 345.316 837.267 344.655 896.019 281.827 978.617 276.69L978.617 661.103 811.059 661.103Z" fill="#7FFDD8"/></g></svg>